<svg width="509" height="509" viewBox="0 0 509 509" fill="none" xmlns="http://www.w3.org/2000/svg">
<g clip-path="url(#clip0_101_2)">
<path d="M254.24 471.182C374.09 471.182 471.247 374.025 471.247 254.175C471.247 134.325 374.09 37.168 254.24 37.168C134.39 37.168 37.233 134.325 37.233 254.175C37.233 374.025 134.39 471.182 254.24 471.182Z" fill="#AD4CDB"/>
<path d="M296.963 491.865H266.446V504.411C266.446 506.445 268.141 508.48 270.515 508.48H311.543V506.446C311.543 498.647 305.101 491.865 296.963 491.865Z" fill="#324A5E"/>
<path d="M211.517 491.865H242.034V504.411C242.034 506.445 240.339 508.48 237.965 508.48H196.937V506.446C196.937 498.647 203.379 491.865 211.517 491.865Z" fill="#2B3B4E"/>
<path d="M319.003 106.34C319.003 106.34 330.192 105.323 333.244 143.299C336.296 181.275 335.278 265.704 331.888 285.71L307.475 281.98C307.475 281.98 310.527 187.379 308.492 173.816C308.153 173.476 300.693 133.126 319.003 106.34Z" fill="#2B3B4E"/>
<path d="M211.517 491.865H241.694C239.66 458.297 257.291 317.243 257.291 317.243C263.733 323.346 266.107 476.268 266.446 491.865H296.284C295.945 481.354 297.979 410.148 307.134 339.282C316.967 262.312 301.031 224.336 301.031 224.336H216.263C194.223 247.393 207.447 338.604 207.447 338.604C208.465 358.271 212.534 478.303 211.517 491.865Z" fill="#324A5E"/>
<path d="M296.285 491.865C295.946 481.354 297.98 410.148 307.135 339.282C310.187 315.547 310.865 295.203 310.187 278.927V278.588C308.831 242.646 301.032 224.675 301.032 224.675H257.97V318.259C264.073 332.839 266.447 476.945 266.786 492.203H296.285V491.865Z" fill="#2B3B4E"/>
<path d="M256.613 113.121C267.287 113.121 275.94 101.887 275.94 88.03C275.94 74.1726 267.287 62.939 256.613 62.939C245.939 62.939 237.286 74.1726 237.286 88.03C237.286 101.887 245.939 113.121 256.613 113.121Z" fill="#F9B54C"/>
<path d="M256.274 102.271C256.274 102.271 261.699 102.61 261.021 112.104L259.665 167.373L250.51 164.999L235.252 116.173L233.896 100.915L244.407 96.846L256.274 102.271Z" fill="#CED5E0"/>
<path d="M255.596 102.271C255.596 102.271 250.171 102.61 250.849 112.104L252.205 167.373L261.36 164.999L276.618 116.173L277.974 100.915L267.463 96.846L255.596 102.271Z" fill="#E6E9EE"/>
<path d="M235.591 100.914C235.591 93.115 235.93 88.707 236.269 87.351C234.235 96.167 194.224 106.678 194.224 106.678C207.109 132.108 204.735 173.814 204.735 173.814C210.499 181.952 210.499 218.233 210.499 218.233C209.143 223.997 207.786 233.152 206.769 243.324L223.384 249.427V249.766L247.797 258.582L261.36 238.577V170.423C252.884 158.896 239.321 114.477 235.591 100.914Z" fill="#2B3B4E"/>
<path d="M257.292 176.867C258.603 176.867 259.666 175.804 259.666 174.493C259.666 173.182 258.603 172.119 257.292 172.119C255.981 172.119 254.918 173.182 254.918 174.493C254.918 175.804 255.981 176.867 257.292 176.867Z" fill="#E6E9EE"/>
<path d="M257.292 192.465C258.603 192.465 259.666 191.402 259.666 190.091C259.666 188.78 258.603 187.717 257.292 187.717C255.981 187.717 254.918 188.78 254.918 190.091C254.918 191.402 255.981 192.465 257.292 192.465Z" fill="#E6E9EE"/>
<path d="M257.292 208.062C258.603 208.062 259.666 206.999 259.666 205.688C259.666 204.377 258.603 203.314 257.292 203.314C255.981 203.314 254.918 204.377 254.918 205.688C254.918 206.999 255.981 208.062 257.292 208.062Z" fill="#E6E9EE"/>
<path d="M257.292 222.302C258.603 222.302 259.665 221.24 259.665 219.929C259.665 218.618 258.603 217.556 257.292 217.556C255.981 217.556 254.919 218.618 254.919 219.929C254.919 221.24 255.981 222.302 257.292 222.302Z" fill="#E6E9EE"/>
<path d="M319.681 106.34C319.681 106.34 279.67 96.168 277.636 87.013C277.636 88.369 278.314 93.116 278.314 100.915C274.245 114.817 261.021 158.896 252.205 170.425V237.9L265.768 257.905L290.181 249.089V248.75L306.796 242.647C305.44 232.475 304.083 223.32 302.727 217.556C302.727 217.556 302.727 181.275 308.491 173.137C309.17 173.476 306.796 131.77 319.681 106.34Z" fill="#324A5E"/>
<path d="M256.274 176.867C257.585 176.867 258.648 175.804 258.648 174.493C258.648 173.182 257.585 172.119 256.274 172.119C254.963 172.119 253.9 173.182 253.9 174.493C253.9 175.804 254.963 176.867 256.274 176.867Z" fill="#E6E9EE"/>
<path d="M256.274 192.465C257.585 192.465 258.648 191.402 258.648 190.091C258.648 188.78 257.585 187.717 256.274 187.717C254.963 187.717 253.9 188.78 253.9 190.091C253.9 191.402 254.963 192.465 256.274 192.465Z" fill="#E6E9EE"/>
<path d="M256.274 208.062C257.585 208.062 258.648 206.999 258.648 205.688C258.648 204.377 257.585 203.314 256.274 203.314C254.963 203.314 253.9 204.377 253.9 205.688C253.9 206.999 254.963 208.062 256.274 208.062Z" fill="#E6E9EE"/>
<path d="M256.274 222.302C257.585 222.302 258.647 221.24 258.647 219.929C258.647 218.618 257.585 217.556 256.274 217.556C254.963 217.556 253.901 218.618 253.901 219.929C253.901 221.24 254.963 222.302 256.274 222.302Z" fill="#E6E9EE"/>
<path d="M256.274 23.267H229.826L234.234 68.025C234.573 71.077 235.929 74.128 237.625 76.502L241.355 80.91C243.729 83.962 247.458 85.996 251.527 86.674L254.24 87.013C255.596 87.352 257.292 87.352 258.648 87.013L261.361 86.674C265.43 85.996 268.821 83.961 271.533 80.91L275.263 76.502C277.297 74.128 278.654 71.077 278.654 68.025L283.062 23.267H256.274Z" fill="#FFD05B"/>
<path d="M285.774 49.375C284.418 52.766 281.366 54.8 279.332 53.783C276.958 52.766 276.28 49.375 277.637 45.984C278.993 42.593 282.045 40.559 284.079 41.576C286.452 42.594 287.13 45.985 285.774 49.375Z" fill="#FFD05B"/>
<path d="M226.775 49.375C228.131 52.766 231.183 54.8 233.217 53.783C235.59 52.766 236.269 49.375 234.912 45.984C233.555 42.593 230.504 40.559 228.47 41.576C226.436 42.594 225.419 45.985 226.775 49.375Z" fill="#FFD05B"/>
<path d="M234.574 13.095C234.574 13.095 256.275 -19.117 286.113 17.503L283.061 16.486C283.061 16.486 288.486 22.589 283.739 43.273C283.739 43.273 280.348 43.612 279.331 51.072C279.331 51.072 278.653 34.457 274.245 31.067C274.245 31.067 246.102 32.762 238.981 26.32C238.981 26.32 231.86 38.188 234.912 54.802C234.912 54.802 229.487 44.291 226.435 38.527C224.401 34.458 223.383 30.389 223.383 25.642C223.723 19.537 225.758 13.095 234.574 13.095Z" fill="#324A5E"/>
<path d="M275.602 84.978C275.602 84.978 286.791 94.472 269.838 113.121C269.838 113.121 259.666 101.932 255.597 102.271C255.597 102.271 277.636 89.047 275.602 84.978Z" fill="white"/>
<path d="M237.625 84.978C237.625 84.978 226.436 94.472 243.389 113.121C243.389 113.121 253.561 101.932 257.63 102.271C257.63 102.271 235.252 89.047 237.625 84.978Z" fill="white"/>
<path d="M259.665 99.558C261.36 98.202 267.125 93.794 273.567 93.116C274.584 93.116 275.262 93.794 275.262 94.472C275.601 97.863 276.279 105.661 275.601 109.391C275.601 110.069 274.584 110.747 273.906 110.747C271.193 110.408 265.09 109.052 259.665 106C259.326 105.661 258.987 104.983 258.987 104.644L259.326 100.575C258.987 100.236 259.326 99.897 259.665 99.558Z" fill="#FF7058"/>
<path d="M253.562 99.558C251.867 98.202 246.102 93.794 239.66 93.116C238.643 93.116 237.965 93.794 237.965 94.472C237.626 97.863 236.948 105.661 237.626 109.391C237.626 110.069 238.643 110.747 239.321 110.747C242.034 110.408 248.137 109.052 253.562 106C253.901 105.661 254.24 104.983 254.24 104.644L253.901 100.575C253.901 100.236 253.562 99.897 253.562 99.558Z" fill="#FF7058"/>
<path d="M257.97 106.34H255.257C254.24 106.34 253.562 105.662 253.562 104.645V101.593C253.562 100.576 254.24 99.898 255.257 99.898H257.97C258.987 99.898 259.665 100.576 259.665 101.593V104.645C259.665 105.661 258.987 106.34 257.97 106.34Z" fill="#F1543F"/>
<path d="M236.608 249.089C235.591 249.428 234.234 249.767 232.878 250.106C221.689 254.175 209.482 254.514 197.954 251.123C189.816 248.749 181 248.071 172.524 250.106C144.72 256.887 128.105 286.726 135.226 316.903C142.347 347.08 170.829 366.408 198.633 359.626C207.449 357.592 214.908 353.184 221.012 347.419C229.489 339.281 240.678 334.195 252.546 332.839C253.902 332.839 255.259 332.5 256.276 332.161C273.569 328.092 280.011 307.07 274.586 284.013C268.82 261.296 253.901 245.02 236.608 249.089Z" fill="#FFD05B"/>
<path d="M222.706 309.444L380.036 268.077L375.967 251.124L216.942 284.014L222.706 309.444Z" fill="#F94CF2"/>
<path d="M215.247 315.548C224.985 315.548 232.879 307.654 232.879 297.916C232.879 288.178 224.985 280.284 215.247 280.284C205.509 280.284 197.615 288.178 197.615 297.916C197.615 307.654 205.509 315.548 215.247 315.548Z" fill="#324A5E"/>
<path d="M166.639 328.09L173.899 326.379L165.499 290.738L158.239 292.449L166.639 328.09Z" fill="#F9B54C"/>
<path d="M408.179 265.365L367.151 274.859C365.456 275.198 363.76 274.181 363.421 272.485L359.013 253.836C358.674 252.141 359.691 250.445 361.387 250.106L402.415 240.612C404.11 240.273 405.806 241.29 406.145 242.986L410.553 261.635C410.892 263.33 409.874 265.026 408.179 265.365Z" fill="#E6E9EE"/>
<path d="M396.99 253.159C398.676 253.159 400.042 251.793 400.042 250.107C400.042 248.421 398.676 247.055 396.99 247.055C395.304 247.055 393.938 248.421 393.938 250.107C393.938 251.793 395.304 253.159 396.99 253.159Z" fill="#ACB3BA"/>
<path d="M383.766 256.21C385.452 256.21 386.818 254.844 386.818 253.158C386.818 251.472 385.452 250.106 383.766 250.106C382.08 250.106 380.714 251.472 380.714 253.158C380.714 254.844 382.08 256.21 383.766 256.21Z" fill="#ACB3BA"/>
<path d="M370.203 259.262C371.889 259.262 373.255 257.896 373.255 256.21C373.255 254.524 371.889 253.158 370.203 253.158C368.517 253.158 367.151 254.524 367.151 256.21C367.151 257.896 368.517 259.262 370.203 259.262Z" fill="#ACB3BA"/>
<path d="M399.024 262.653C400.71 262.653 402.076 261.287 402.076 259.601C402.076 257.915 400.71 256.549 399.024 256.549C397.338 256.549 395.972 257.915 395.972 259.601C395.972 261.287 397.338 262.653 399.024 262.653Z" fill="#ACB3BA"/>
<path d="M385.8 266.043C387.486 266.043 388.852 264.677 388.852 262.991C388.852 261.305 387.486 259.939 385.8 259.939C384.114 259.939 382.748 261.305 382.748 262.991C382.748 264.677 384.114 266.043 385.8 266.043Z" fill="#ACB3BA"/>
<path d="M372.576 269.095C374.262 269.095 375.628 267.729 375.628 266.043C375.628 264.357 374.262 262.991 372.576 262.991C370.89 262.991 369.524 264.357 369.524 266.043C369.524 267.729 370.89 269.095 372.576 269.095Z" fill="#ACB3BA"/>
<path d="M185.747 292.152V301.307L189.138 311.479L191.172 312.835C191.172 312.835 193.206 318.26 205.413 321.312C205.413 321.312 212.534 324.025 211.177 319.956C211.177 319.956 211.177 315.209 206.43 314.192C206.43 314.192 205.074 311.14 202.361 311.14C202.361 311.14 204.056 308.427 200.666 304.359C200.666 304.359 201.005 301.646 199.988 300.629C199.988 300.629 203.379 299.273 203.379 298.595C203.379 298.595 204.396 310.802 210.839 309.784C210.839 309.784 213.213 308.428 210.839 304.02C210.839 304.02 209.144 287.405 204.058 285.032C203.718 285.031 193.207 283.675 185.747 292.152Z" fill="#FF7058"/>
<path d="M183.374 283.336L185.408 293.169C185.408 293.169 197.276 282.997 204.735 285.709L202.701 278.928L183.374 283.336Z" fill="white"/>
<path d="M193.885 106.34C193.885 106.34 182.696 105.323 179.644 143.299C176.592 181.275 177.61 265.704 181 285.71L205.413 281.98C205.413 281.98 202.361 187.379 204.396 173.816C204.396 173.476 212.195 133.126 193.885 106.34Z" fill="#324A5E"/>
<path d="M330.192 287.744C332.905 287.066 334.6 284.353 334.261 281.641L333.244 276.555C332.566 273.842 330.87 272.147 329.175 272.486C327.48 272.825 326.801 275.199 327.141 277.911C326.463 275.198 324.767 273.503 323.072 273.842C321.377 274.181 320.698 276.555 321.038 279.267C320.36 276.554 318.665 274.859 316.969 275.198C315.274 275.537 314.595 277.911 314.935 280.623C314.257 277.91 312.561 276.215 310.866 276.554C309.171 276.893 308.492 279.267 308.832 281.979L309.849 287.065C310.527 289.778 313.24 291.473 315.952 291.134L330.192 287.744Z" fill="#FF7058"/>
</g>
<defs>
<clipPath id="clip0_101_2">
<rect width="508.48" height="508.48" fill="white"/>
</clipPath>
</defs>
</svg>
